<svg xmlns="http://www.w3.org/2000/svg" version="1.1" xmlns:xlink="http://www.w3.org/1999/xlink" width="512" height="512" x="0" y="0" viewBox="0 0 453.543 453.543" style="enable-background:new 0 0 512 512" xml:space="preserve" class=""><g><path fill="#ff8d7d" d="M453.543 226.772c0 19.063-29.759 33.961-34.459 51.543-4.862 18.191 13.318 45.944 4.103 61.87-9.347 16.155-42.557 14.224-55.669 27.336-13.112 13.111-11.181 46.321-27.337 55.669-15.926 9.214-43.679-8.966-61.869-4.104-17.581 4.699-32.478 34.459-51.54 34.459-19.063 0-33.961-29.759-51.542-34.459-18.191-4.862-45.944 13.318-61.871 4.103-16.155-9.347-14.224-42.558-27.336-55.669-13.111-13.112-46.321-11.181-55.668-27.337-9.214-15.926 8.966-43.679 4.104-61.87C29.76 260.732 0 245.834 0 226.772s29.76-33.961 34.459-51.542c4.862-18.191-13.318-45.943-4.103-61.87 9.348-16.156 42.557-14.225 55.669-27.336s11.181-46.321 27.336-55.669c15.927-9.214 43.679 8.966 61.869 4.104C192.812 29.759 207.71 0 226.772 0s33.961 29.76 51.542 34.459c18.191 4.862 45.943-13.318 61.87-4.103 16.156 9.347 14.225 42.557 27.336 55.669 13.112 13.112 46.322 11.181 55.669 27.336 9.214 15.926-8.966 43.679-4.104 61.869 4.699 17.582 34.458 32.479 34.458 51.542z" opacity="1" data-original="#ff8d7d" class=""></path><circle cx="226.772" cy="226.772" r="183.126" fill="#f9c875" transform="rotate(-45 226.748 226.83)" opacity="1" data-original="#f9c875" class=""></circle><path fill="#ffffff" d="M248.646 266.001c-.08-5.674-4.704-10.536-10.367-10.883a11.027 11.027 0 0 0-6.797 1.812 8.467 8.467 0 0 1-9.42 0 11.015 11.015 0 0 0-6.798-1.812c-5.664.347-10.287 5.21-10.367 10.884a11.02 11.02 0 0 0 1.205 5.174l-.005.001s5.437 12.008 20.674 12.008 20.672-12.008 20.672-12.008l-.003-.002a10.994 10.994 0 0 0 1.206-5.174z" opacity="1" data-original="#ffffff" class=""></path><g fill="#310636"><path d="M225.435 258.344v24.842c0 1.103 1.714 1.105 1.714 0v-24.842c.001-1.103-1.714-1.105-1.714 0zM231.424 256.941l5.063 20.58.712 2.893c.264 1.071 1.917.617 1.653-.456l-5.063-20.58-.712-2.893c-.264-1.071-1.917-.617-1.653.456zM237.948 255.771l7.178 14.74 1.03 2.115c.483.992 1.962.124 1.48-.865l-7.178-14.74-1.03-2.115c-.482-.992-1.961-.124-1.48.865zM220.518 256.485l-5.054 20.544-.711 2.888c-.264 1.071 1.389 1.528 1.653.456l5.055-20.544.71-2.888c.264-1.071-1.389-1.529-1.653-.456zM214.046 255.154l-7.073 14.522-1.015 2.084c-.481.988.997 1.858 1.48.865l7.073-14.522 1.015-2.084c.481-.987-.997-1.857-1.48-.865z" fill="#310636" opacity="1" data-original="#310636" class=""></path></g><path fill="#ffffff" d="M171.513 170.358c-26.651 0-48.255 21.605-48.255 48.255a48.033 48.033 0 0 0 9.903 29.274c3.086-1.672 6.49-3.146 10.156-4.39 8.422-2.858 18.213-4.504 28.669-4.504 10.154 0 19.68 1.552 27.935 4.259 3.681 1.207 7.113 2.64 10.227 4.275a48.038 48.038 0 0 0 9.619-28.913c.001-26.651-21.604-48.256-48.254-48.256z" opacity="1" data-original="#ffffff" class=""></path><path fill="#310636" d="M171.513 180.999c-20.774 0-37.615 16.841-37.615 37.615 0 9.544 3.562 18.252 9.419 24.884 8.422-2.859 18.213-4.504 28.669-4.504 10.154 0 19.68 1.552 27.935 4.259 5.73-6.601 9.205-15.211 9.205-24.639.001-20.775-16.839-37.615-37.613-37.615z" opacity="1" data-original="#310636" class=""></path><path fill="#ffffff" d="M282.03 170.358c-26.651 0-48.255 21.605-48.255 48.255a48.039 48.039 0 0 0 9.902 29.274c3.086-1.672 6.49-3.146 10.157-4.39 8.422-2.858 18.212-4.504 28.669-4.504 10.154 0 19.68 1.552 27.936 4.259 3.681 1.207 7.113 2.64 10.227 4.275a48.038 48.038 0 0 0 9.619-28.913c0-26.651-21.605-48.256-48.255-48.256z" opacity="1" data-original="#ffffff" class=""></path><path fill="#310636" d="M282.03 180.999c-20.774 0-37.615 16.841-37.615 37.615 0 9.544 3.561 18.252 9.418 24.884 8.422-2.859 18.212-4.504 28.669-4.504 10.154 0 19.68 1.552 27.935 4.259 5.73-6.601 9.206-15.211 9.206-24.639.002-20.775-16.839-37.615-37.613-37.615z" opacity="1" data-original="#310636" class=""></path><ellipse cx="130.996" cy="247.887" fill="#ff8d7d" rx="19.922" ry="10.798" opacity="1" data-original="#ff8d7d" class=""></ellipse><path fill="#ff8d7d" d="M342.47 247.887c0 5.963-8.92 10.798-19.922 10.798s-19.922-4.835-19.922-10.798c0-5.964 8.92-10.798 19.922-10.798s19.922 4.835 19.922 10.798z" opacity="1" data-original="#ff8d7d" class=""></path></g></svg>
